<svg id="圖層_1" viewBox="0 0 300 300" xmlns="http://www.w3.org/2000/svg"><path d="m239.104 195.67-17.321-10 7.501-12.99c1.381-2.392.562-5.449-1.83-6.83-2.391-1.382-5.449-.563-6.83 1.83l-7.501 12.99-19.857-11.465 15.66-4.196c2.667-.715 4.25-3.456 3.536-6.124-.715-2.666-3.449-4.251-6.124-3.535l-25.32 6.784-2.901-1.675c1.215-3.259 1.883-6.781 1.883-10.459 0-3.677-.668-7.201-1.885-10.459l2.901-1.675 25.32 6.785c.435.116.868.172 1.297.172 2.208 0 4.228-1.474 4.827-3.707.714-2.667-.868-5.409-3.536-6.124l-15.661-4.197 19.858-11.465 7.499 12.991c.926 1.604 2.605 2.501 4.335 2.501.849 0 1.708-.217 2.495-.671 2.392-1.38 3.211-4.438 1.83-6.83l-7.499-12.99 17.321-10c2.392-1.381 3.211-4.438 1.83-6.83-1.381-2.391-4.438-3.212-6.83-1.83l-17.321 10-7.499-12.991c-1.381-2.391-4.438-3.212-6.83-1.83-2.393 1.38-3.211 4.438-1.83 6.83l7.499 12.991-19.856 11.464 4.195-15.661c.714-2.668-.869-5.409-3.536-6.124-2.668-.714-5.409.869-6.124 3.536l-6.784 25.321-2.911 1.681c-4.497-5.426-10.866-9.242-18.105-10.462v-3.354l18.535-18.535c1.953-1.952 1.953-5.118 0-7.071-1.951-1.952-5.119-1.952-7.07 0l-11.465 11.463v-22.929h15c2.762 0 5-2.239 5-5s-2.238-5-5-5h-15v-20c0-2.761-2.238-5-5-5s-5 2.239-5 5v20h-15c-2.762 0-5 2.239-5 5s2.238 5 5 5h15v22.929l-11.465-11.464c-1.951-1.952-5.119-1.952-7.07 0-1.953 1.952-1.953 5.118 0 7.071l18.535 18.535v3.354c-7.239 1.22-13.608 5.036-18.104 10.462l-2.913-1.682-6.784-25.32c-.715-2.666-3.451-4.25-6.124-3.536-2.667.715-4.25 3.457-3.536 6.124l4.196 15.661-19.856-11.464 7.5-12.99c1.381-2.392.562-5.449-1.83-6.83-2.393-1.382-5.45-.561-6.83 1.83l-7.5 12.99-17.32-10c-2.392-1.382-5.451-.561-6.83 1.83-1.381 2.392-.562 5.449 1.83 6.83l17.32 10-7.5 12.99c-1.381 2.392-.562 5.449 1.83 6.83.787.455 1.647.671 2.495.671 1.728 0 3.409-.897 4.335-2.501l7.5-12.99 19.856 11.464-15.66 4.196c-2.667.715-4.25 3.457-3.536 6.124.598 2.234 2.619 3.708 4.827 3.708.428 0 .863-.056 1.297-.172l25.321-6.784 2.901 1.675c-1.217 3.258-1.885 6.782-1.885 10.459 0 3.678.668 7.2 1.884 10.459l-2.901 1.675-25.32-6.784c-2.667-.716-5.409.867-6.124 3.535-.714 2.668.868 5.408 3.536 6.123l15.661 4.197-19.857 11.465-7.5-12.992c-1.38-2.392-4.439-3.212-6.83-1.83-2.392 1.381-3.211 4.438-1.83 6.83l7.5 12.991-17.321 10.001c-2.392 1.381-3.211 4.438-1.83 6.83.926 1.604 2.606 2.501 4.335 2.501.848 0 1.708-.216 2.495-.671l17.321-10.001 7.5 12.991c.926 1.604 2.606 2.5 4.335 2.5.847 0 1.708-.217 2.495-.67 2.392-1.381 3.211-4.439 1.83-6.83l-7.5-12.99 19.856-11.464-4.196 15.659c-.714 2.668.869 5.41 3.536 6.125.434.115.868.172 1.297.172 2.208-.002 4.229-1.475 4.827-3.708l6.784-25.32 2.912-1.681c4.497 5.426 10.865 9.242 18.105 10.462v3.353l-18.535 18.537c-1.953 1.952-1.953 5.118 0 7.07 1.951 1.953 5.119 1.953 7.07 0l11.465-11.465v22.93h-15c-2.761 0-5 2.238-5 5 0 2.761 2.238 5 5 5h15v20c0 2.762 2.238 5 5 5s5-2.238 5-5v-20h15c2.762 0 5-2.238 5-5s-2.238-5-5-5h-15v-22.93l11.465 11.465c.975.977 2.256 1.465 3.535 1.465s2.561-.488 3.535-1.465c1.953-1.952 1.953-5.118 0-7.07l-18.535-18.537v-3.353c7.239-1.22 13.608-5.036 18.105-10.462l2.911 1.681 6.784 25.321c.598 2.232 2.619 3.707 4.827 3.707.429 0 .863-.055 1.297-.172 2.667-.715 4.25-3.457 3.536-6.123l-4.195-15.661 19.856 11.464-7.501 12.99c-1.381 2.391-.562 5.449 1.83 6.83.787.455 1.646.67 2.494.67 1.729 0 3.41-.896 4.336-2.5l7.501-12.99 17.321 10c.787.455 1.647.671 2.496.671 1.728 0 3.408-.897 4.334-2.501 1.382-2.393.564-5.449-1.828-6.83zm-89.098-25.67c-.002 0-.004-.001-.006-.001s-.004.001-.006.001c-11.025-.004-19.994-8.975-19.994-20 0-11.028 8.972-20 20-20 11.027 0 20 8.972 20 20 0 11.025-8.969 19.996-19.994 20z" fill="#000000" style="fill: rgb(205, 171, 143);"></path></svg>